<svg xmlns="http://www.w3.org/2000/svg" width="1414" height="520" viewBox="0 0 1414 520" role="img" aria-labelledby="title desc">
  <title id="title">Microbit Robotics</title>
  <desc id="desc">Code Geek Academy course banner for Microbit Robotics.</desc>
  <rect width="1414" height="520" fill="#ffffff"/>
  <circle cx="72" cy="48" r="190" fill="none" stroke="#8b9bb1" stroke-width="8" opacity="0.5"/>
  <circle cx="1322" cy="470" r="230" fill="none" stroke="#8b9bb1" stroke-width="8" opacity="0.45"/>
  <g fill="#173b72">
    <rect x="930" y="0" width="78" height="78"/>
    <rect x="1084" y="0" width="78" height="78"/>
    <rect x="1238" y="0" width="78" height="78"/>
    <rect x="1007" y="78" width="78" height="78"/>
    <rect x="1161" y="78" width="78" height="78"/>
  </g>
  <text x="140" y="132" font-family="Montserrat, Arial, sans-serif" font-size="42" font-weight="700" fill="#173b72">code geek academy</text>
  <text x="140" y="205" font-family="Montserrat, Arial, sans-serif" font-size="58" font-weight="800" fill="#f04a2a">MICROBIT ROBOTICS</text>
  <text x="140" y="274" font-family="Inter, Arial, sans-serif" font-size="28" font-weight="700" fill="#48bb78">Robots • Motors • Sensors • Smart automation</text>
  <g transform="translate(140 334)" fill="none" stroke="#173b72" stroke-width="8" stroke-linecap="round" stroke-linejoin="round">
    <rect x="34" y="10" width="190" height="86" rx="20" fill="#ffffff"/>
    <circle cx="76" cy="116" r="24" fill="#48bb78"/>
    <circle cx="184" cy="116" r="24" fill="#48bb78"/>
    <path d="M84 10v-34h96v34"/>
    <path d="M44 44h170"/>
    <path d="M82 62h22m34 0h22"/>
  </g>
  <text x="1040" y="205" font-family="Montserrat, Arial, sans-serif" font-size="42" font-weight="800" fill="#173b72">2026/27</text>
</svg>
